General
Complete name                  : C:\Users\joeyz\OneDrive - mail.scut.edu.cn\Current Projects\2024.04.02 Motion Sickness\Du_Dataset\videos\cartooncoaster.mp4
Format                         : MPEG-4
Format profile                 : Base Media / Version 2
Codec ID                       : mp42 (mp41/mp42/isom)
File size                      : 117 MiB
Duration                       : 1 min 0 s
Overall bit rate               : 16.4 Mb/s
Frame rate                     : 30.000 FPS
Encoded date                   : 2017-04-11 00:11:56 UTC
Tagged date                    : 2017-04-11 00:12:00 UTC

Video
ID                             : 1
Format                         : AVC
Format/Info                    : Advanced Video Codec
Format profile                 : High@L5.1
Format settings                : 2 Ref Frames
Format settings, CABAC         : No
Format settings, Reference fra : 2 frames
Codec ID                       : avc1
Codec ID/Info                  : Advanced Video Coding
Duration                       : 1 min 0 s
Source duration                : 1 min 1 s
Source_Duration_LastFrame      : 8 ms
Bit rate                       : 16.0 Mb/s
Width                          : 3 840 pixels
Height                         : 2 160 pixels
Display aspect ratio           : 16:9
Frame rate mode                : Constant
Frame rate                     : 30.000 FPS
Color space                    : YUV
Chroma subsampling             : 4:2:0
Bit depth                      : 8 bits
Scan type                      : Progressive
Bits/(Pixel*Frame)             : 0.064
Stream size                    : 114 MiB (98%)
Source stream size             : 116 MiB (99%)
Title                          : Core Media Video
Encoded date                   : 2017-04-11 00:11:56 UTC
Tagged date                    : 2017-04-11 00:12:00 UTC
Color range                    : Limited
Color primaries                : BT.709
Transfer characteristics       : BT.709
Matrix coefficients            : BT.709
Codec configuration box        : avcC

Audio
ID                             : 2
Format                         : AAC LC
Format/Info                    : Advanced Audio Codec Low Complexity
Codec ID                       : mp4a-40-2
Duration                       : 1 min 0 s
Source duration                : 1 min 0 s
Bit rate mode                  : Constant
Bit rate                       : 126 kb/s
Channel(s)                     : 2 channels
Channel layout                 : L R
Sampling rate                  : 44.1 kHz
Frame rate                     : 43.066 FPS (1024 SPF)
Compression mode               : Lossy
Stream size                    : 920 KiB (1%)
Source stream size             : 921 KiB (1%)
Title                          : Core Media Audio
Default                        : Yes
Alternate group                : 1
Encoded date                   : 2017-04-11 00:11:56 UTC
Tagged date                    : 2017-04-11 00:12:00 UTC

